Coordinates
version=1
nRows=17
nColumns=38
inDegrees=no

Units are S.I. units (second, meters, Newtons, ...)
If the header above contains a line with 'inDegrees', this indicates whether rotational values are in degrees (yes) or radians (no).

endheader
time	pelvis_tilt	pelvis_list	pelvis_rotation	pelvis_tx	pelvis_ty	pelvis_tz	hip_flexion_r	hip_adduction_r	hip_rotation_r	knee_angle_r	ankle_angle_r	subtalar_angle_r	mtp_angle_r	hip_flexion_l	hip_adduction_l	hip_rotation_l	knee_angle_l	ankle_angle_l	subtalar_angle_l	mtp_angle_l	lumbar_extension	lumbar_bending	lumbar_rotation	arm_flex_r	arm_add_r	arm_rot_r	elbow_flex_r	pro_sup_r	wrist_flex_r	wrist_dev_r	arm_flex_l	arm_add_l	arm_rot_l	elbow_flex_l	pro_sup_l	wrist_flex_l	wrist_dev_l
180	3.10301	1.17916	-1.40409	0.703236	0.936896	1.09204	-0.189369	0.0378902	-0.165865	0.380121	-0.365475	0	0	-0.300117	-0.172217	-0.148233	0.944737	-0.26244	0	0	-0.581868	-0.272667	0.425743	0.0921799	-0.346699	-0.328901	1.60832	1.5708	0	0	0.787578	0.91513	-0.813175	1.18814	0	0	0
180.01	3.09631	1.17894	-1.39519	0.701909	0.931571	1.09155	-0.191643	0.0412346	-0.160059	0.362697	-0.37461	0	0	-0.313541	-0.173261	-0.146768	0.933177	-0.272798	0	0	-0.57995	-0.266376	0.429536	0.0826155	-0.356358	-0.329712	1.61215	1.5708	0	0	0.760337	0.901554	-0.75818	1.18434	0	0	0
180.02	3.10012	1.19102	-1.40069	0.700661	0.926069	1.08923	-0.227101	0.0287443	-0.0171317	0.227331	-0.42966	0	0	-0.313814	-0.164448	-0.146025	0.92055	-0.275087	0	0	-0.567295	-0.267815	0.429855	0.0764761	-0.35723	-0.334029	1.61494	1.5708	0	0	0.748412	0.898583	-0.740603	1.18551	0	0	0
180.03	3.09661	1.19012	-1.39566	0.699327	0.920321	1.08849	-0.227413	0.0297009	-0.018197	0.216465	-0.437508	0	0	-0.329089	-0.163684	-0.148475	0.900138	-0.275784	0	0	-0.566831	-0.26505	0.430804	0.0705543	-0.360054	-0.338656	1.61693	1.5708	0	0	0.742022	0.898538	-0.729707	1.18346	0	0	0
180.04	3.10111	1.19094	-1.39835	0.697132	0.914307	1.08805	-0.225718	0.0248536	-0.0220311	0.205394	-0.445955	0	0	-0.343388	-0.155603	-0.14698	0.872794	-0.273275	0	0	-0.568388	-0.26283	0.427108	0.0670185	-0.363346	-0.341179	1.62002	1.5708	0	0	0.732909	0.897263	-0.7155	1.18596	0	0	0
180.05	3.08871	1.18828	-1.38562	0.696452	0.908536	1.08695	-0.228118	0.0306472	-0.0185371	0.191363	-0.453007	0	0	-0.360039	-0.161788	-0.159854	0.846654	-0.265104	0	0	-0.567852	-0.259198	0.430895	0.0607248	-0.366241	-0.346464	1.62208	1.5708	0	0	0.72812	0.898894	-0.706077	1.18406	0	0	0
180.06	3.0949	1.1908	-1.38965	0.693973	0.902189	1.08633	-0.224523	0.0249987	-0.0224835	0.180999	-0.460112	0	0	-0.371313	-0.152023	-0.159569	0.811557	-0.255284	0	0	-0.56919	-0.257141	0.426025	0.0578258	-0.370042	-0.349743	1.62568	1.5708	0	0	0.720056	0.898399	-0.693102	1.18691	0	0	0
180.07	3.08365	1.18791	-1.37872	0.693199	0.896198	1.08524	-0.227287	0.0303937	-0.0187481	0.166815	-0.466236	0	0	-0.387623	-0.156739	-0.174859	0.778381	-0.244056	0	0	-0.569742	-0.253953	0.429595	0.0524215	-0.373795	-0.354997	1.628	1.5708	0	0	0.716424	0.900873	-0.684898	1.1856	0	0	0
180.08	3.08419	1.19206	-1.37755	0.690822	0.889642	1.08426	-0.221222	0.0270173	-0.0204469	0.156592	-0.47267	0	0	-0.394928	-0.149465	-0.176456	0.743224	-0.232816	0	0	-0.569562	-0.250223	0.425394	0.0502024	-0.37826	-0.358145	1.63187	1.5708	0	0	0.708847	0.900588	-0.671819	1.18869	0	0	0
180.09	3.08108	1.18854	-1.37411	0.689523	0.88316	1.08344	-0.22486	0.028286	-0.0195416	0.142003	-0.480091	0	0	-0.41033	-0.149013	-0.188688	0.711303	-0.221226	0	0	-0.573064	-0.248909	0.427411	0.0454428	-0.383694	-0.363713	1.63425	1.5708	0	0	0.706354	0.903196	-0.663149	1.18586	0	0	0
180.1	3.07933	1.19009	-1.37258	0.68768	0.876536	1.08263	-0.221424	0.0266376	-0.0192055	0.131173	-0.484941	0	0	-0.417701	-0.145089	-0.200111	0.68425	-0.212103	0	0	-0.574632	-0.246082	0.425796	0.0436272	-0.388771	-0.367149	1.63707	1.5708	0	0	0.701096	0.904301	-0.652937	1.18829	0	0	0
180.11	3.08176	1.18859	-1.3744	0.686004	0.86962	1.08202	-0.222229	0.0242937	-0.0201502	0.118173	-0.491647	0	0	-0.426168	-0.140961	-0.212926	0.661097	-0.201594	0	0	-0.579105	-0.24591	0.42473	0.0415181	-0.393771	-0.372137	1.63884	1.5708	0	0	0.699335	0.906658	-0.645208	1.18723	0	0	0
180.12	3.08387	1.18876	-1.37633	0.684224	0.86263	1.08143	-0.22042	0.0213232	-0.0212864	0.107159	-0.496277	0	0	-0.430953	-0.136416	-0.227006	0.641104	-0.19352	0	0	-0.58296	-0.245174	0.422552	0.0406326	-0.398376	-0.376569	1.64121	1.5708	0	0	0.696496	0.908455	-0.636845	1.18825	0	0	0
180.13	3.0896	1.18779	-1.38168	0.682467	0.855415	1.081	-0.22094	0.0172318	-0.0213197	0.0938678	-0.501687	0	0	-0.436325	-0.130513	-0.239947	0.621876	-0.185265	0	0	-0.588306	-0.246198	0.420525	0.0396821	-0.403121	-0.381764	1.64318	1.5708	0	0	0.694465	0.910138	-0.627822	1.18742	0	0	0
180.14	3.09635	1.18812	-1.38842	0.680683	0.848101	1.08064	-0.219505	0.0120755	-0.0205106	0.0816928	-0.50492	0	0	-0.439356	-0.123659	-0.252384	0.604305	-0.179146	0	0	-0.593627	-0.2477	0.416584	0.0408445	-0.407689	-0.384855	1.64493	1.5708	0	0	0.691466	0.911344	-0.618051	1.18984	0	0	0
180.15	3.10494	1.18814	-1.39681	0.679018	0.840686	1.08036	-0.218087	0.00604912	-0.0208346	0.0698484	-0.507634	0	0	-0.441811	-0.116502	-0.263656	0.588513	-0.173478	0	0	-0.599346	-0.250207	0.412551	0.042327	-0.412147	-0.38828	1.64614	1.5708	0	0	0.689445	0.912532	-0.60895	1.1915	0	0	0
180.16	3.11442	1.19097	-1.40656	0.677585	0.83342	1.07986	-0.213072	-0.000943162	-0.0209246	0.0593887	-0.508761	0	0	-0.440217	-0.108774	-0.272946	0.574935	-0.167917	0	0	-0.601421	-0.253777	0.409483	0.0428568	-0.415107	-0.392215	1.64675	1.5708	0	0	0.686516	0.912139	-0.598174	1.19151	0	0	0
